M48
; DRILL file {KiCad 9.0.7} date 2026-02-20T19:48:18-0500
; FORMAT={-:-/ absolute / metric / decimal}
; #@! TF.CreationDate,2026-02-20T19:48:18-05:00
; #@! TF.GenerationSoftware,Kicad,Pcbnew,9.0.7
; #@! TF.FileFunction,MixedPlating,1,4
FMAT,2
METRIC
; #@! TA.AperFunction,Plated,PTH,ViaDrill
T1C0.250
; #@! TA.AperFunction,Plated,PTH,ComponentDrill
T2C0.860
; #@! TA.AperFunction,Plated,PTH,ComponentDrill
T3C0.950
; #@! TA.AperFunction,Plated,PTH,ComponentDrill
T4C1.000
; #@! TA.AperFunction,Plated,PTH,ComponentDrill
T5C1.040
; #@! TA.AperFunction,Plated,PTH,ComponentDrill
T6C1.400
; #@! TA.AperFunction,Plated,PTH,ComponentDrill
T7C2.900
; #@! TA.AperFunction,NonPlated,NPTH,ComponentDrill
T8C1.930
; #@! TA.AperFunction,NonPlated,NPTH,ComponentDrill
T9C2.500
; #@! TA.AperFunction,NonPlated,NPTH,ComponentDrill
T10C2.790
%
G90
G05
T1
X65.102Y-51.912
X65.126Y-52.984
X66.0Y-41.5
X66.0Y-138.5
X66.091Y-61.595
X67.25Y-41.5
X67.25Y-136.0
X67.25Y-138.5
X68.05Y-54.65
X68.4Y-52.4
X68.5Y-41.5
X68.5Y-136.0
X68.5Y-138.5
X69.75Y-41.5
X69.75Y-136.0
X69.75Y-138.5
X71.0Y-41.5
X71.0Y-136.0
X71.0Y-138.5
X72.25Y-41.5
X72.25Y-138.5
X72.659Y-53.339
X72.755Y-54.699
X72.8Y-55.6
X72.984Y-52.608
X73.076Y-116.408
X73.152Y-112.522
X73.224Y-53.939
X73.5Y-41.5
X73.5Y-138.5
X73.562Y-54.867
X73.67Y-104.23
X73.67Y-105.17
X73.67Y-107.831
X73.67Y-108.77
X73.75Y-95.199
X73.8Y-52.4
X73.85Y-53.25
X74.75Y-41.5
X74.75Y-138.5
X76.0Y-41.5
X76.0Y-138.5
X77.25Y-41.5
X77.25Y-138.5
X77.275Y-90.93
X77.275Y-91.87
X78.5Y-41.5
X78.5Y-138.5
X78.903Y-116.676
X79.75Y-41.5
X79.75Y-138.5
X79.793Y-116.676
X81.0Y-41.5
X81.0Y-138.5
X82.0Y-93.25
X82.25Y-41.5
X82.25Y-138.5
X82.475Y-66.5
X83.0Y-93.25
X83.375Y-66.875
X83.5Y-41.5
X83.5Y-138.5
X83.983Y-116.676
X84.0Y-93.25
X84.75Y-41.5
X84.75Y-138.5
X84.873Y-116.676
X86.0Y-41.5
X86.0Y-138.5
X86.25Y-110.5
X87.25Y-41.5
X87.25Y-110.5
X87.25Y-138.5
X88.5Y-41.5
X88.5Y-138.5
X89.245Y-90.93
X89.75Y-41.5
X89.75Y-138.5
X90.572Y-116.713
X91.0Y-41.5
X91.0Y-93.5
X91.0Y-94.5
X91.0Y-138.5
X91.462Y-116.713
X91.83Y-104.9
X92.11Y-98.83
X92.25Y-41.5
X92.25Y-138.5
X92.58Y-108.5
X93.05Y-98.83
X93.08Y-104.9
X93.5Y-41.5
X93.5Y-138.5
X94.15Y-99.75
X94.15Y-100.75
X94.15Y-101.75
X94.15Y-103.0
X94.15Y-104.0
X94.15Y-105.0
X94.46Y-71.1
X94.75Y-41.5
X94.75Y-138.5
X95.35Y-71.26
X95.43Y-95.02
X95.652Y-116.713
X96.0Y-41.5
X96.0Y-138.5
X96.37Y-95.02
X96.542Y-116.713
X97.25Y-41.5
X97.25Y-138.5
X97.65Y-95.25
X98.175Y-135.745
X98.175Y-136.695
X98.5Y-41.5
X98.5Y-138.5
X98.9Y-95.25
X99.75Y-41.5
X99.75Y-138.5
X99.9Y-95.25
X100.65Y-100.0
X100.65Y-101.0
X100.65Y-102.0
X100.65Y-103.0
X100.65Y-104.0
X100.675Y-132.36
X101.0Y-41.5
X101.0Y-138.5
X101.215Y-90.93
X101.215Y-91.87
X101.5Y-88.5
X101.945Y-132.36
X102.135Y-135.805
X102.135Y-136.695
X102.203Y-116.676
X102.25Y-41.5
X102.25Y-138.5
X102.5Y-88.5
X103.093Y-116.676
X103.215Y-126.64
X103.215Y-132.36
X103.5Y-41.5
X103.5Y-138.5
X104.0Y-93.5
X104.485Y-126.64
X104.485Y-132.36
X104.75Y-41.5
X104.75Y-138.5
X105.0Y-93.5
X105.755Y-132.36
X106.0Y-41.5
X106.0Y-93.5
X106.0Y-138.5
X106.426Y-65.075
X107.25Y-41.5
X107.25Y-138.5
X107.283Y-116.676
X107.29Y-65.684
X107.47Y-127.0
X107.5Y-110.25
X108.173Y-116.676
X108.5Y-41.5
X108.5Y-110.25
X108.5Y-138.5
X108.8Y-127.1
X109.75Y-41.5
X109.75Y-138.5
X110.16Y-127.0
X110.63Y-104.624
X111.0Y-41.5
X111.0Y-138.5
X111.38Y-108.225
X111.51Y-127.0
X111.88Y-104.624
X112.25Y-41.5
X112.25Y-138.5
X112.5Y-93.0
X112.5Y-94.0
X112.66Y-94.855
X112.66Y-95.795
X113.185Y-90.93
X113.185Y-91.87
X113.5Y-41.5
X113.5Y-138.5
X113.853Y-116.676
X114.5Y-88.5
X114.743Y-116.676
X114.75Y-41.5
X114.75Y-138.5
X115.5Y-88.5
X116.0Y-41.5
X116.0Y-138.5
X117.25Y-41.5
X117.25Y-138.5
X118.45Y-65.025
X118.5Y-41.5
X118.5Y-138.5
X118.933Y-116.676
X119.3Y-65.575
X119.75Y-41.5
X119.75Y-138.5
X119.823Y-116.676
X120.16Y-109.63
X121.0Y-41.5
X121.0Y-138.5
X122.25Y-41.5
X122.25Y-138.5
X122.47Y-109.63
X123.5Y-41.5
X123.5Y-138.5
X124.275Y-90.93
X124.275Y-91.87
X124.75Y-41.5
X124.75Y-138.5
X125.903Y-116.676
X126.0Y-41.5
X126.0Y-88.5
X126.0Y-138.5
X126.793Y-116.676
X127.0Y-88.5
X127.25Y-41.5
X127.25Y-138.5
X128.5Y-41.5
X128.5Y-138.5
X129.25Y-93.5
X129.75Y-41.5
X129.75Y-138.5
X130.103Y-76.083
X130.25Y-93.5
X130.368Y-76.948
X130.983Y-116.676
X131.0Y-41.5
X131.0Y-138.5
X131.25Y-93.5
X131.873Y-116.676
X132.25Y-41.5
X132.25Y-138.5
X133.0Y-110.5
X133.5Y-41.5
X133.5Y-138.5
X134.0Y-110.5
X134.75Y-41.5
X134.75Y-138.5
X136.0Y-41.5
X136.0Y-138.5
X136.245Y-90.93
X136.245Y-91.87
X137.0Y-88.5
X137.25Y-41.5
X137.25Y-138.5
X137.553Y-116.676
X138.0Y-88.5
X138.0Y-93.5
X138.0Y-94.5
X138.443Y-116.676
X138.5Y-41.5
X138.5Y-138.5
X138.83Y-104.9
X139.14Y-98.86
X139.58Y-108.5
X139.75Y-41.5
X139.75Y-138.5
X140.08Y-104.9
X140.08Y-98.86
X141.0Y-41.5
X141.0Y-93.5
X141.0Y-94.5
X141.0Y-138.5
X141.427Y-76.759
X141.75Y-99.75
X141.75Y-100.75
X141.75Y-101.75
X141.75Y-103.0
X141.75Y-104.0
X141.75Y-105.0
X142.25Y-41.5
X142.25Y-138.5
X142.392Y-76.962
X142.53Y-95.02
X142.633Y-116.676
X143.25Y-110.0
X143.47Y-95.02
X143.5Y-41.5
X143.5Y-138.5
X143.523Y-116.676
X143.75Y-130.25
X144.25Y-110.0
X144.75Y-41.5
X144.75Y-95.25
X144.75Y-130.25
X144.75Y-138.5
X145.175Y-135.745
X145.175Y-136.695
X146.0Y-41.5
X146.0Y-95.25
X146.0Y-138.5
X147.0Y-95.25
X147.25Y-41.5
X147.25Y-138.5
X147.75Y-100.0
X147.75Y-101.0
X147.75Y-102.0
X147.75Y-103.0
X147.75Y-104.0
X148.215Y-90.93
X148.215Y-91.87
X148.5Y-41.5
X148.5Y-138.5
X148.945Y-132.36
X149.135Y-135.805
X149.135Y-136.695
X149.203Y-116.676
X149.5Y-88.5
X149.75Y-41.5
X149.75Y-138.5
X150.093Y-116.676
X150.215Y-126.64
X150.215Y-132.36
X150.5Y-88.5
X151.0Y-41.5
X151.0Y-138.5
X151.25Y-93.25
X151.485Y-126.64
X151.485Y-132.36
X152.25Y-41.5
X152.25Y-93.25
X152.25Y-138.5
X152.755Y-132.36
X153.25Y-93.25
X153.5Y-41.5
X153.5Y-138.5
X154.24Y-72.45
X154.25Y-110.25
X154.283Y-116.676
X154.47Y-127.0
X154.75Y-41.5
X154.75Y-138.5
X155.13Y-72.06
X155.173Y-116.676
X155.25Y-110.25
X155.74Y-127.0
X156.0Y-41.5
X156.0Y-138.5
X157.16Y-127.0
X157.25Y-41.5
X157.25Y-138.5
X157.63Y-104.9
X158.38Y-108.5
X158.5Y-41.5
X158.5Y-138.5
X158.51Y-127.0
X158.88Y-104.9
X159.5Y-93.0
X159.5Y-94.0
X159.66Y-94.855
X159.66Y-95.795
X159.75Y-41.5
X159.75Y-138.5
X160.185Y-90.93
X160.185Y-91.87
X160.853Y-116.676
X161.0Y-41.5
X161.0Y-88.5
X161.0Y-138.5
X161.743Y-116.676
X162.0Y-88.5
X162.25Y-41.5
X162.25Y-138.5
X163.5Y-41.5
X163.5Y-138.5
X164.75Y-41.5
X164.75Y-138.5
X165.933Y-116.676
X166.0Y-41.5
X166.0Y-138.5
X166.28Y-72.36
X166.823Y-116.676
X167.11Y-72.13
X167.25Y-41.5
X167.25Y-138.5
X168.329Y-95.229
X168.329Y-96.168
X168.329Y-107.83
X168.329Y-108.77
X168.5Y-41.5
X168.5Y-138.5
X169.5Y-65.55
X169.75Y-41.5
X169.75Y-69.8
X169.75Y-138.5
X169.95Y-60.5
X169.95Y-61.5
X169.95Y-62.5
X170.0Y-55.0
X170.5Y-86.5
X170.5Y-88.5
X170.75Y-69.8
X171.0Y-41.5
X171.0Y-55.0
X171.0Y-65.55
X171.0Y-138.5
X171.5Y-86.5
X171.5Y-88.5
X172.0Y-55.0
X172.25Y-41.5
X172.25Y-138.5
X172.358Y-69.708
X172.358Y-70.708
X172.5Y-86.5
X172.5Y-88.5
X173.5Y-41.5
X173.5Y-138.5
X174.75Y-41.5
X174.75Y-138.5
X176.0Y-41.5
X176.0Y-138.5
X177.25Y-41.5
X177.25Y-138.5
X177.95Y-68.425
X178.5Y-41.5
X178.5Y-138.5
X179.5Y-65.55
X179.75Y-41.5
X179.75Y-69.8
X179.75Y-138.5
X180.75Y-69.8
X181.0Y-41.5
X181.0Y-65.55
X181.0Y-138.5
X182.0Y-88.5
X182.25Y-41.5
X182.25Y-138.5
X182.4Y-69.75
X182.4Y-70.75
X183.0Y-88.5
X183.5Y-41.5
X183.5Y-138.5
X184.0Y-88.5
X184.75Y-41.5
X184.75Y-138.5
X186.0Y-41.5
X186.0Y-138.5
X187.0Y-79.0
X187.25Y-41.5
X187.25Y-138.5
X188.0Y-68.5
X188.0Y-79.0
X188.5Y-41.5
X188.5Y-138.5
X189.0Y-79.0
X189.75Y-41.5
X189.75Y-138.5
X190.0Y-64.2
X190.75Y-130.25
X191.0Y-41.5
X191.0Y-138.5
X191.01Y-70.57
X191.75Y-130.25
X192.01Y-70.57
X192.175Y-135.745
X192.175Y-136.695
X192.25Y-41.5
X192.25Y-138.5
X192.55Y-64.34
X192.74Y-72.985
X193.5Y-41.5
X193.5Y-138.5
X193.74Y-72.985
X194.5Y-61.5
X194.5Y-62.5
X194.5Y-63.5
X194.65Y-72.985
X194.75Y-41.5
X194.75Y-138.5
X195.65Y-72.985
X195.945Y-132.36
X196.0Y-41.5
X196.0Y-126.7
X196.0Y-138.5
X196.135Y-135.805
X196.135Y-136.695
X197.215Y-126.64
X197.215Y-132.36
X197.25Y-41.5
X197.25Y-138.5
X197.5Y-88.5
X198.0Y-79.0
X198.485Y-126.64
X198.485Y-132.36
X198.5Y-41.5
X198.5Y-88.5
X198.5Y-138.5
X199.0Y-79.0
X199.5Y-88.5
X199.75Y-41.5
X199.75Y-138.5
X199.755Y-132.36
X200.0Y-71.0
X200.0Y-72.0
X200.0Y-73.0
X201.0Y-41.5
X201.0Y-138.5
X201.46Y-127.0
X201.75Y-130.5
X202.25Y-41.5
X202.25Y-138.5
X202.75Y-130.5
X202.81Y-127.0
X203.5Y-41.5
X203.5Y-138.5
X203.91Y-64.325
X203.91Y-65.325
X203.91Y-67.275
X204.0Y-63.0
X204.16Y-127.0
X204.75Y-41.5
X204.75Y-138.5
X205.0Y-63.0
X205.51Y-127.0
X206.0Y-41.5
X206.0Y-63.0
X206.0Y-88.5
X206.0Y-138.5
X207.0Y-63.0
X207.0Y-70.5
X207.0Y-88.5
X207.25Y-41.5
X207.25Y-138.5
X208.25Y-56.75
X208.5Y-41.5
X208.5Y-138.5
X209.75Y-41.5
X209.75Y-138.5
X211.0Y-41.5
X211.0Y-138.5
X212.25Y-41.5
X212.25Y-138.5
X213.5Y-41.5
X213.5Y-138.5
X214.0Y-81.0
X214.5Y-113.0
X214.7Y-82.2
X214.75Y-41.5
X214.75Y-138.5
X215.2Y-81.2
X215.2Y-83.0
X215.25Y-61.0
X215.25Y-62.0
X215.25Y-86.5
X215.25Y-102.21
X215.25Y-105.076
X215.25Y-107.941
X215.3Y-83.925
X215.41Y-57.643
X215.41Y-59.076
X215.41Y-60.104
X215.5Y-53.4
X215.5Y-85.25
X215.544Y-68.422
X215.544Y-71.287
X215.544Y-74.153
X215.544Y-121.403
X215.551Y-118.544
X215.6Y-115.672
X216.0Y-41.5
X216.0Y-138.5
X217.25Y-41.5
X217.25Y-138.5
X218.5Y-41.5
X218.5Y-138.5
X219.75Y-41.5
X219.75Y-138.5
X219.9Y-48.7
X220.9Y-48.7
X221.0Y-41.5
X221.0Y-138.5
X221.9Y-48.7
X222.25Y-41.5
X222.25Y-138.5
X222.5Y-113.0
X223.458Y-48.0
X223.5Y-41.5
X223.5Y-138.5
X224.0Y-57.0
X224.75Y-41.5
X224.75Y-138.5
X225.0Y-57.0
X226.0Y-41.5
X226.0Y-138.5
X226.64Y-60.65
X227.04Y-57.0
X227.09Y-79.82
X227.09Y-82.36
X227.09Y-84.9
X227.125Y-70.475
X227.15Y-68.2
X227.2Y-63.05
X227.25Y-41.5
X227.25Y-138.5
X227.325Y-72.6
X227.9Y-46.3
X228.5Y-41.5
X228.5Y-138.5
X228.74Y-124.652
X228.79Y-101.0
X229.75Y-41.5
X229.75Y-138.5
X229.84Y-91.82
X229.84Y-94.36
X229.84Y-96.9
X229.84Y-99.44
X229.84Y-103.82
X229.84Y-106.36
X229.84Y-108.9
X229.84Y-111.44
X229.84Y-115.82
X229.84Y-118.36
X229.84Y-120.9
X230.04Y-101.0
X230.09Y-79.82
X230.09Y-82.36
X230.09Y-84.9
X230.708Y-62.836
X231.0Y-41.5
X231.0Y-138.5
X231.52Y-84.92
X231.52Y-103.84
X232.25Y-41.5
X232.25Y-138.5
X232.52Y-114.55
X232.52Y-117.09
X232.52Y-119.63
X232.52Y-122.17
X232.75Y-112.25
X232.77Y-78.55
X232.77Y-81.09
X232.77Y-83.63
X232.77Y-111.42
X233.435Y-72.975
X233.435Y-75.795
X233.5Y-41.5
X233.5Y-138.5
X234.75Y-41.5
X234.75Y-138.5
X235.25Y-93.5
X235.25Y-94.75
X235.25Y-96.0
X235.25Y-97.25
X235.25Y-98.5
X235.25Y-99.75
X235.5Y-48.0
X236.0Y-41.5
X236.0Y-138.5
X236.25Y-113.585
X237.217Y-114.82
X237.217Y-116.32
X237.221Y-117.594
X237.225Y-48.7
X237.25Y-41.5
X237.25Y-138.5
X237.7Y-56.225
X237.725Y-91.75
X237.75Y-113.585
X238.0Y-93.0
X238.0Y-105.5
X238.13Y-95.942
X238.13Y-99.442
X238.5Y-41.5
X238.5Y-138.5
X238.772Y-112.368
X239.0Y-93.0
X239.0Y-105.5
X239.124Y-56.225
X239.175Y-135.745
X239.175Y-136.695
X239.25Y-46.25
X239.4Y-99.442
X239.55Y-67.05
X239.745Y-91.75
X239.75Y-41.5
X239.75Y-73.0
X239.75Y-79.575
X239.75Y-138.5
X239.92Y-83.5
X240.272Y-112.368
X240.385Y-48.06
X240.5Y-46.25
X240.5Y-93.0
X240.935Y-59.145
X241.0Y-41.5
X241.0Y-73.0
X241.0Y-79.575
X241.0Y-138.5
X241.375Y-100.625
X241.385Y-48.06
X241.42Y-83.5
X241.5Y-46.25
X241.5Y-93.0
X241.721Y-117.594
X241.935Y-59.145
X242.25Y-41.5
X242.25Y-138.5
X242.57Y-117.1
X242.9Y-126.9
X242.945Y-132.36
X243.0Y-105.0
X243.135Y-135.805
X243.135Y-136.695
X243.5Y-41.5
X243.5Y-138.5
X243.82Y-117.1
X243.875Y-101.875
X244.0Y-52.0
X244.0Y-105.0
X244.215Y-132.36
X244.25Y-50.25
X244.42Y-73.84
X244.42Y-75.09
X244.6Y-78.245
X244.6Y-79.515
X244.6Y-80.785
X244.6Y-82.055
X244.75Y-41.5
X244.75Y-138.5
X245.0Y-105.0
X245.07Y-117.1
X245.25Y-72.25
X245.485Y-126.64
X245.485Y-132.36
X245.75Y-93.0
X245.75Y-95.942
X246.0Y-41.5
X246.0Y-54.3
X246.0Y-138.5
X246.25Y-47.75
X246.25Y-72.25
X246.755Y-126.64
X246.755Y-132.36
X247.0Y-54.3
X247.0Y-78.5
X247.0Y-79.5
X247.02Y-95.942
X247.25Y-41.5
X247.25Y-47.75
X247.25Y-138.5
X247.32Y-111.35
X247.32Y-112.85
X247.32Y-114.35
X247.32Y-115.85
X248.5Y-41.5
X248.5Y-93.058
X248.5Y-96.0
X248.5Y-138.5
X248.793Y-55.55
X249.0Y-73.75
X249.0Y-78.6
X249.3Y-58.5
X249.32Y-111.35
X249.32Y-112.85
X249.32Y-114.35
X249.32Y-115.85
X249.75Y-41.5
X249.75Y-138.5
X249.81Y-127.0
X249.925Y-75.05
X249.925Y-75.95
X250.0Y-70.625
X250.0Y-71.895
X250.0Y-73.165
X250.0Y-78.245
X250.0Y-79.515
X250.0Y-80.785
X250.0Y-82.055
X250.0Y-93.058
X250.0Y-96.0
X250.0Y-104.5
X250.0Y-105.5
X250.3Y-58.5
X250.57Y-115.85
X250.88Y-83.32
X251.0Y-41.5
X251.0Y-138.5
X251.1Y-51.3
X251.16Y-127.0
X251.23Y-96.0
X251.82Y-115.85
X252.22Y-101.663
X252.25Y-41.5
X252.25Y-138.5
X252.38Y-85.27
X252.5Y-96.0
X252.51Y-127.0
X252.675Y-51.05
X252.7Y-56.1
X253.07Y-115.85
X253.33Y-82.81
X253.45Y-101.663
X253.5Y-41.5
X253.5Y-138.5
X253.63Y-85.27
X253.705Y-79.83
X253.73Y-93.058
X253.73Y-96.0
X254.25Y-68.0
X254.58Y-82.81
X254.705Y-79.83
X254.75Y-41.5
X254.75Y-138.5
X255.0Y-62.5
X255.05Y-58.4
X255.5Y-68.0
X255.75Y-124.25
X255.75Y-126.0
X255.78Y-82.395
X255.78Y-85.27
X256.0Y-41.5
X256.0Y-62.5
X256.0Y-122.1
X256.0Y-138.5
X256.05Y-58.4
X256.375Y-48.875
X256.45Y-50.35
X256.5Y-47.8
X256.625Y-52.725
X256.692Y-76.454
X257.03Y-82.395
X257.03Y-85.27
X257.1Y-74.605
X257.1Y-75.605
X257.25Y-41.5
X257.25Y-138.5
X257.34Y-78.255
X257.34Y-79.255
X257.55Y-52.75
X258.0Y-61.75
X258.5Y-41.5
X258.5Y-138.5
X259.0Y-58.5
X259.0Y-66.5
X259.0Y-67.5
X259.0Y-80.5
X259.0Y-84.0
X259.029Y-73.101
X259.2Y-47.75
X259.25Y-49.45
X259.25Y-50.575
X259.525Y-121.1
X259.525Y-122.35
X259.635Y-116.7
X259.635Y-117.95
X259.75Y-41.5
X259.75Y-138.5
X260.0Y-58.5
X260.1Y-52.95
X260.121Y-72.492
X260.25Y-101.0
X260.25Y-102.25
X260.25Y-103.5
X260.5Y-80.5
X260.5Y-87.5
X260.5Y-88.5
X261.0Y-41.5
X261.0Y-138.5
X261.5Y-52.5
X261.5Y-80.5
X261.5Y-85.5
X261.6Y-66.7
X262.25Y-41.5
X262.25Y-138.5
X262.4Y-107.95
X262.4Y-109.2
X262.7Y-67.156
X263.5Y-41.5
X263.5Y-138.5
X264.75Y-41.5
X264.75Y-138.5
X266.0Y-41.5
X266.0Y-138.5
X271.0Y-41.5
X271.0Y-138.5
X272.25Y-41.5
X272.25Y-138.5
X273.5Y-41.5
X273.5Y-138.5
T2
X77.18Y-45.23
X77.18Y-47.77
X79.72Y-45.23
X79.72Y-47.77
X82.26Y-45.23
X82.26Y-47.77
X84.8Y-45.23
X84.8Y-47.77
X87.34Y-45.23
X87.34Y-47.77
X89.88Y-45.23
X89.88Y-47.77
X92.42Y-45.23
X92.42Y-47.77
X94.96Y-45.23
X94.96Y-47.77
X97.5Y-45.23
X97.5Y-47.77
X100.04Y-45.23
X100.04Y-47.77
X102.58Y-45.23
X102.58Y-47.77
X105.12Y-45.23
X105.12Y-47.77
X107.66Y-45.23
X107.66Y-47.77
X110.2Y-45.23
X110.2Y-47.77
X112.74Y-45.23
X112.74Y-47.77
X115.28Y-45.23
X115.28Y-47.77
X117.82Y-45.23
X117.82Y-47.77
X124.18Y-45.23
X124.18Y-47.77
X126.72Y-45.23
X126.72Y-47.77
X129.26Y-45.23
X129.26Y-47.77
X131.8Y-45.23
X131.8Y-47.77
X134.34Y-45.23
X134.34Y-47.77
X136.88Y-45.23
X136.88Y-47.77
X139.42Y-45.23
X139.42Y-47.77
X141.96Y-45.23
X141.96Y-47.77
X144.5Y-45.23
X144.5Y-47.77
X147.04Y-45.23
X147.04Y-47.77
X149.58Y-45.23
X149.58Y-47.77
X152.12Y-45.23
X152.12Y-47.77
X154.66Y-45.23
X154.66Y-47.77
X157.2Y-45.23
X157.2Y-47.77
X159.74Y-45.23
X159.74Y-47.77
X162.28Y-45.23
X162.28Y-47.77
X164.82Y-45.23
X164.82Y-47.77
T3
X239.225Y-60.055
X239.225Y-62.595
T4
X264.66Y-50.63
X264.66Y-53.17
X264.66Y-55.71
X264.66Y-58.25
X264.66Y-60.79
X264.66Y-63.33
X264.66Y-65.87
X264.66Y-68.41
X264.66Y-70.95
X264.66Y-73.49
X264.66Y-76.03
X264.66Y-78.57
X264.66Y-81.11
X264.66Y-83.65
X264.66Y-86.19
X264.66Y-88.73
X264.66Y-91.27
X264.66Y-93.81
X264.66Y-96.35
X264.66Y-98.89
X264.66Y-101.43
X264.66Y-103.97
X264.66Y-106.51
X264.66Y-109.05
X264.66Y-111.59
X264.66Y-114.13
X264.66Y-116.67
X264.66Y-119.21
X264.66Y-121.75
X264.66Y-124.29
X264.66Y-126.83
X264.66Y-129.37
X267.2Y-50.63
X267.2Y-53.17
X267.2Y-55.71
X267.2Y-58.25
X267.2Y-60.79
X267.2Y-63.33
X267.2Y-65.87
X267.2Y-68.41
X267.2Y-70.95
X267.2Y-73.49
X267.2Y-76.03
X267.2Y-78.57
X267.2Y-81.11
X267.2Y-83.65
X267.2Y-86.19
X267.2Y-88.73
X267.2Y-91.27
X267.2Y-93.81
X267.2Y-96.35
X267.2Y-98.89
X267.2Y-101.43
X267.2Y-103.97
X267.2Y-106.51
X267.2Y-109.05
X267.2Y-111.59
X267.2Y-114.13
X267.2Y-116.67
X267.2Y-119.21
X267.2Y-121.75
X267.2Y-124.29
X267.2Y-126.83
X267.2Y-129.37
X269.74Y-50.63
X269.74Y-53.17
X269.74Y-55.71
X269.74Y-58.25
X269.74Y-60.79
X269.74Y-63.33
X269.74Y-65.87
X269.74Y-68.41
X269.74Y-70.95
X269.74Y-73.49
X269.74Y-76.03
X269.74Y-78.57
X269.74Y-81.11
X269.74Y-83.65
X269.74Y-86.19
X269.74Y-88.73
X269.74Y-91.27
X269.74Y-93.81
X269.74Y-96.35
X269.74Y-98.89
X269.74Y-101.43
X269.74Y-103.97
X269.74Y-106.51
X269.74Y-109.05
X269.74Y-111.59
X269.74Y-114.13
X269.74Y-116.67
X269.74Y-119.21
X269.74Y-121.75
X269.74Y-124.29
X269.74Y-126.83
X269.74Y-129.37
T5
X232.999Y-57.34
X232.999Y-59.88
X232.999Y-62.42
X232.999Y-64.96
X232.999Y-67.5
X232.999Y-70.04
T6
X57.66Y-68.25
X57.66Y-71.75
X57.66Y-75.25
X57.66Y-78.75
X57.66Y-82.25
X57.66Y-85.75
X57.66Y-89.25
X57.66Y-92.75
X57.66Y-96.25
X57.66Y-99.75
X57.66Y-103.25
X57.66Y-106.75
X57.66Y-110.25
X57.66Y-113.75
X57.66Y-117.25
X57.66Y-120.75
X60.16Y-68.25
X60.16Y-71.75
X60.16Y-75.25
X60.16Y-78.75
X60.16Y-82.25
X60.16Y-85.75
X60.16Y-89.25
X60.16Y-92.75
X60.16Y-96.25
X60.16Y-99.75
X60.16Y-103.25
X60.16Y-106.75
X60.16Y-110.25
X60.16Y-113.75
X60.16Y-117.25
X60.16Y-120.75
T7
X58.56Y-45.5
X58.57Y-134.45
T8
X58.303Y-52.42
X58.303Y-57.5
X61.275Y-52.42
X61.275Y-57.5
T9
X78.0Y-132.0
X117.0Y-132.0
X125.0Y-132.0
X164.0Y-132.0
X172.0Y-132.0
X211.0Y-132.0
T10
X272.28Y-45.55
X272.28Y-134.45
M30
