  0
SECTION
  2
HEADER
  9
$ANGBASE
  50
0.0
  9
$ANGDIR
  70
1
  9
$MEASUREMENT
  70
1
  0
ENDSEC
  0
SECTION
  2
TABLES
  0
TABLE
  2
LTYPE
  70
4
  0
LTYPE
  5
40F
  2
CONTINUOUS
  70
0
  3
Solid line
  72
65
  73
0
  40
0.0
  0
LTYPE
  5
410
  2
DASHDOT
 70
0
  3
Dash Dot ____ _ ____ _
 72
65
 73
4
 40
2.0
 49
1.25
 49
-0.25
 49
0.25
 49
-0.25
  0
LTYPE
  5
411
  2
DASHED
 70
0
  3
Dashed __ __ __ __ __
 72
65
 73
2
 40
0.75
 49
0.5
 49
-0.25
  0
LTYPE
  5
43B
  2
DOTTED
 70
0
  3
Dotted .  .  .  .
 72
65
 73
2
 40
0.2
 49
0.0
 49
-0.2
  0
ENDTAB
  0
TABLE
  2
STYLE
  70
4
  0
STYLE
  2
KICAD
  70
0
  40
0
  41
1
  42
1
  50
0
  71
0
  3
isocp.shx
  0
STYLE
  2
KICADB
  70
0
  40
0
  41
1
  42
1
  50
0
  71
0
  3
isocp.shx
  0
STYLE
  2
KICADI
  70
0
  40
0
  41
1
  42
1
  50
15
  71
0
  3
isocp.shx
  0
STYLE
  2
KICADBI
  70
0
  40
0
  41
1
  42
1
  50
15
  71
0
  3
isocp.shx
  0
ENDTAB
  0
TABLE
  2
LAYER
  70
1
  0
LAYER
  2
BLACK
  70
0
  62
7
  6
CONTINUOUS
  0
ENDTAB
  0
ENDSEC
  0
SECTION
  2
ENTITIES
0
LINE
8
BLACK
6
CONTINUOUS
10
61.1599999999999966
20
-67.2499979999999908
11
61.1599999999999966
21
-69.2499979999999908
0
LINE
8
BLACK
6
CONTINUOUS
10
59.1599999999999966
20
-67.2499979999999908
11
61.1599999999999966
21
-67.2499979999999908
0
LINE
8
BLACK
6
CONTINUOUS
10
61.1599999999999966
20
-69.2499979999999908
11
59.1599999999999966
21
-69.2499979999999908
0
LINE
8
BLACK
6
CONTINUOUS
10
59.1599999999999966
20
-69.2499979999999908
11
59.1599999999999966
21
-67.2499979999999908
0
CIRCLE
8
BLACK
10
57.6599999999999966
20
-68.2499979999999908
40
1.
0
CIRCLE
8
BLACK
10
60.1599999999999966
20
-71.7499979999999908
40
1.
0
CIRCLE
8
BLACK
10
57.6599999999999966
20
-71.7499979999999908
40
1.
0
CIRCLE
8
BLACK
10
60.1599999999999966
20
-75.2499979999999908
40
1.
0
CIRCLE
8
BLACK
10
57.6599999999999966
20
-75.2499979999999908
40
1.
0
CIRCLE
8
BLACK
10
60.1599999999999966
20
-78.7499979999999908
40
1.
0
CIRCLE
8
BLACK
10
57.6599999999999966
20
-78.7499979999999908
40
1.
0
CIRCLE
8
BLACK
10
60.1599999999999966
20
-82.2499979999999908
40
1.
0
CIRCLE
8
BLACK
10
57.6599999999999966
20
-82.2499979999999908
40
1.
0
CIRCLE
8
BLACK
10
60.1599999999999966
20
-85.7499979999999908
40
1.
0
CIRCLE
8
BLACK
10
57.6599999999999966
20
-85.7499979999999908
40
1.
0
CIRCLE
8
BLACK
10
60.1599999999999966
20
-89.2499979999999908
40
1.
0
CIRCLE
8
BLACK
10
57.6599999999999966
20
-89.2499979999999908
40
1.
0
CIRCLE
8
BLACK
10
60.1599999999999966
20
-92.7499979999999908
40
1.
0
CIRCLE
8
BLACK
10
57.6599999999999966
20
-92.7499979999999908
40
1.
0
CIRCLE
8
BLACK
10
60.1599999999999966
20
-96.2499979999999908
40
1.
0
CIRCLE
8
BLACK
10
57.6599999999999966
20
-96.2499979999999908
40
1.
0
CIRCLE
8
BLACK
10
60.1599999999999966
20
-99.7499979999999908
40
1.
0
CIRCLE
8
BLACK
10
57.6599999999999966
20
-99.7499979999999908
40
1.
0
CIRCLE
8
BLACK
10
60.1599999999999966
20
-103.2499979999999908
40
1.
0
CIRCLE
8
BLACK
10
57.6599999999999966
20
-103.2499979999999908
40
1.
0
CIRCLE
8
BLACK
10
60.1599999999999966
20
-106.7499979999999908
40
1.
0
CIRCLE
8
BLACK
10
57.6599999999999966
20
-106.7499979999999908
40
1.
0
CIRCLE
8
BLACK
10
60.1599999999999966
20
-110.2499979999999908
40
1.
0
CIRCLE
8
BLACK
10
57.6599999999999966
20
-110.2499979999999908
40
1.
0
CIRCLE
8
BLACK
10
60.1599999999999966
20
-113.7499979999999908
40
1.
0
CIRCLE
8
BLACK
10
57.6599999999999966
20
-113.7499979999999908
40
1.
0
CIRCLE
8
BLACK
10
60.1599999999999966
20
-117.2499979999999908
40
1.
0
CIRCLE
8
BLACK
10
57.6599999999999966
20
-117.2499979999999908
40
1.
0
CIRCLE
8
BLACK
10
60.1599999999999966
20
-120.7499979999999908
40
1.
0
CIRCLE
8
BLACK
10
57.6599999999999966
20
-120.7499979999999908
40
1.
0
CIRCLE
8
BLACK
10
58.5599999999999952
20
-45.5
40
1.895
0
CIRCLE
8
BLACK
10
58.5700000000000003
20
-134.4499999999999886
40
1.895
0
LINE
8
BLACK
6
CONTINUOUS
10
55.
20
-140.
11
55.
21
-40.
0
LINE
8
BLACK
6
CONTINUOUS
10
55.
20
-40.
11
275.
21
-40.
0
LINE
8
BLACK
6
CONTINUOUS
10
275.
20
-40.
11
275.
21
-140.
0
LINE
8
BLACK
6
CONTINUOUS
10
275.
20
-140.
11
55.
21
-140.
0
CIRCLE
8
BLACK
10
60.1599999999999966
20
-68.2499979999999908
40
0.7
0
CIRCLE
8
BLACK
10
57.6599999999999966
20
-68.2499979999999908
40
0.7
0
CIRCLE
8
BLACK
10
60.1599999999999966
20
-71.7499979999999908
40
0.7
0
CIRCLE
8
BLACK
10
57.6599999999999966
20
-71.7499979999999908
40
0.7
0
CIRCLE
8
BLACK
10
60.1599999999999966
20
-75.2499979999999908
40
0.7
0
CIRCLE
8
BLACK
10
57.6599999999999966
20
-75.2499979999999908
40
0.7
0
CIRCLE
8
BLACK
10
60.1599999999999966
20
-78.7499979999999908
40
0.7
0
CIRCLE
8
BLACK
10
57.6599999999999966
20
-78.7499979999999908
40
0.7
0
CIRCLE
8
BLACK
10
60.1599999999999966
20
-82.2499979999999908
40
0.7
0
CIRCLE
8
BLACK
10
57.6599999999999966
20
-82.2499979999999908
40
0.7
0
CIRCLE
8
BLACK
10
60.1599999999999966
20
-85.7499979999999908
40
0.7
0
CIRCLE
8
BLACK
10
57.6599999999999966
20
-85.7499979999999908
40
0.7
0
CIRCLE
8
BLACK
10
60.1599999999999966
20
-89.2499979999999908
40
0.7
0
CIRCLE
8
BLACK
10
57.6599999999999966
20
-89.2499979999999908
40
0.7
0
CIRCLE
8
BLACK
10
60.1599999999999966
20
-92.7499979999999908
40
0.7
0
CIRCLE
8
BLACK
10
57.6599999999999966
20
-92.7499979999999908
40
0.7
0
CIRCLE
8
BLACK
10
60.1599999999999966
20
-96.2499979999999908
40
0.7
0
CIRCLE
8
BLACK
10
57.6599999999999966
20
-96.2499979999999908
40
0.7
0
CIRCLE
8
BLACK
10
60.1599999999999966
20
-99.7499979999999908
40
0.7
0
CIRCLE
8
BLACK
10
57.6599999999999966
20
-99.7499979999999908
40
0.7
0
CIRCLE
8
BLACK
10
60.1599999999999966
20
-103.2499979999999908
40
0.7
0
CIRCLE
8
BLACK
10
57.6599999999999966
20
-103.2499979999999908
40
0.7
0
CIRCLE
8
BLACK
10
60.1599999999999966
20
-106.7499979999999908
40
0.7
0
CIRCLE
8
BLACK
10
57.6599999999999966
20
-106.7499979999999908
40
0.7
0
CIRCLE
8
BLACK
10
60.1599999999999966
20
-110.2499979999999908
40
0.7
0
CIRCLE
8
BLACK
10
57.6599999999999966
20
-110.2499979999999908
40
0.7
0
CIRCLE
8
BLACK
10
60.1599999999999966
20
-113.7499979999999908
40
0.7
0
CIRCLE
8
BLACK
10
57.6599999999999966
20
-113.7499979999999908
40
0.7
0
CIRCLE
8
BLACK
10
60.1599999999999966
20
-117.2499979999999908
40
0.7
0
CIRCLE
8
BLACK
10
57.6599999999999966
20
-117.2499979999999908
40
0.7
0
CIRCLE
8
BLACK
10
60.1599999999999966
20
-120.7499979999999908
40
0.7
0
CIRCLE
8
BLACK
10
57.6599999999999966
20
-120.7499979999999908
40
0.7
0
CIRCLE
8
BLACK
10
272.2799999999999727
20
-134.4499999999999886
40
1.3949989999999999
0
CIRCLE
8
BLACK
10
272.2799999999999727
20
-45.5499999999999972
40
1.3949989999999999
0
CIRCLE
8
BLACK
10
269.7400000000000091
20
-50.6299999999999955
40
0.5
0
CIRCLE
8
BLACK
10
269.7400000000000091
20
-53.1699999999999946
40
0.5
0
CIRCLE
8
BLACK
10
269.7400000000000091
20
-55.7100000000000009
40
0.5
0
CIRCLE
8
BLACK
10
269.7400000000000091
20
-58.25
40
0.5
0
CIRCLE
8
BLACK
10
269.7400000000000091
20
-60.7899999999999991
40
0.5
0
CIRCLE
8
BLACK
10
269.7400000000000091
20
-63.3299999999999983
40
0.5
0
CIRCLE
8
BLACK
10
269.7400000000000091
20
-65.8699999999999903
40
0.5
0
CIRCLE
8
BLACK
10
269.7400000000000091
20
-68.4099999999999966
40
0.5
0
CIRCLE
8
BLACK
10
269.7400000000000091
20
-70.9500000000000028
40
0.5
0
CIRCLE
8
BLACK
10
269.7400000000000091
20
-73.4899999999999949
40
0.5
0
CIRCLE
8
BLACK
10
269.7400000000000091
20
-76.0300000000000011
40
0.5
0
CIRCLE
8
BLACK
10
269.7400000000000091
20
-78.5699999999999932
40
0.5
0
CIRCLE
8
BLACK
10
269.7400000000000091
20
-81.1099999999999994
40
0.5
0
CIRCLE
8
BLACK
10
269.7400000000000091
20
-83.6499999999999915
40
0.5
0
CIRCLE
8
BLACK
10
269.7400000000000091
20
-86.1899999999999977
40
0.5
0
CIRCLE
8
BLACK
10
269.7400000000000091
20
-88.7299999999999898
40
0.5
0
CIRCLE
8
BLACK
10
269.7400000000000091
20
-91.269999999999996
40
0.5
0
CIRCLE
8
BLACK
10
269.7400000000000091
20
-93.8100000000000023
40
0.5
0
CIRCLE
8
BLACK
10
269.7400000000000091
20
-96.3499999999999943
40
0.5
0
CIRCLE
8
BLACK
10
269.7400000000000091
20
-98.8900000000000006
40
0.5
0
CIRCLE
8
BLACK
10
269.7400000000000091
20
-101.4299999999999926
40
0.5
0
CIRCLE
8
BLACK
10
269.7400000000000091
20
-103.9699999999999989
40
0.5
0
CIRCLE
8
BLACK
10
269.7400000000000091
20
-106.5099999999999909
40
0.5
0
CIRCLE
8
BLACK
10
269.7400000000000091
20
-109.0499999999999972
40
0.5
0
CIRCLE
8
BLACK
10
269.7400000000000091
20
-111.5899999999999892
40
0.5
0
CIRCLE
8
BLACK
10
269.7400000000000091
20
-114.1299999999999955
40
0.5
0
CIRCLE
8
BLACK
10
269.7400000000000091
20
-116.6700000000000017
40
0.5
0
CIRCLE
8
BLACK
10
269.7400000000000091
20
-119.2099999999999937
40
0.5
0
CIRCLE
8
BLACK
10
269.7400000000000091
20
-121.75
40
0.5
0
CIRCLE
8
BLACK
10
269.7400000000000091
20
-124.289999999999992
40
0.5
0
CIRCLE
8
BLACK
10
269.7400000000000091
20
-126.8299999999999983
40
0.5
0
CIRCLE
8
BLACK
10
269.7400000000000091
20
-129.3700000000000045
40
0.5
0
CIRCLE
8
BLACK
10
267.1999999999999886
20
-50.6299999999999955
40
0.5
0
CIRCLE
8
BLACK
10
267.1999999999999886
20
-53.1699999999999946
40
0.5
0
CIRCLE
8
BLACK
10
267.1999999999999886
20
-55.7100000000000009
40
0.5
0
CIRCLE
8
BLACK
10
267.1999999999999886
20
-58.25
40
0.5
0
CIRCLE
8
BLACK
10
267.1999999999999886
20
-60.7899999999999991
40
0.5
0
CIRCLE
8
BLACK
10
267.1999999999999886
20
-63.3299999999999983
40
0.5
0
CIRCLE
8
BLACK
10
267.1999999999999886
20
-65.8699999999999903
40
0.5
0
CIRCLE
8
BLACK
10
267.1999999999999886
20
-68.4099999999999966
40
0.5
0
CIRCLE
8
BLACK
10
267.1999999999999886
20
-70.9500000000000028
40
0.5
0
CIRCLE
8
BLACK
10
267.1999999999999886
20
-73.4899999999999949
40
0.5
0
CIRCLE
8
BLACK
10
267.1999999999999886
20
-76.0300000000000011
40
0.5
0
CIRCLE
8
BLACK
10
267.1999999999999886
20
-78.5699999999999932
40
0.5
0
CIRCLE
8
BLACK
10
267.1999999999999886
20
-81.1099999999999994
40
0.5
0
CIRCLE
8
BLACK
10
267.1999999999999886
20
-83.6499999999999915
40
0.5
0
CIRCLE
8
BLACK
10
267.1999999999999886
20
-86.1899999999999977
40
0.5
0
CIRCLE
8
BLACK
10
267.1999999999999886
20
-88.7299999999999898
40
0.5
0
CIRCLE
8
BLACK
10
267.1999999999999886
20
-91.269999999999996
40
0.5
0
CIRCLE
8
BLACK
10
267.1999999999999886
20
-93.8100000000000023
40
0.5
0
CIRCLE
8
BLACK
10
267.1999999999999886
20
-96.3499999999999943
40
0.5
0
CIRCLE
8
BLACK
10
267.1999999999999886
20
-98.8900000000000006
40
0.5
0
CIRCLE
8
BLACK
10
267.1999999999999886
20
-101.4299999999999926
40
0.5
0
CIRCLE
8
BLACK
10
267.1999999999999886
20
-103.9699999999999989
40
0.5
0
CIRCLE
8
BLACK
10
267.1999999999999886
20
-106.5099999999999909
40
0.5
0
CIRCLE
8
BLACK
10
267.1999999999999886
20
-109.0499999999999972
40
0.5
0
CIRCLE
8
BLACK
10
267.1999999999999886
20
-111.5899999999999892
40
0.5
0
CIRCLE
8
BLACK
10
267.1999999999999886
20
-114.1299999999999955
40
0.5
0
CIRCLE
8
BLACK
10
267.1999999999999886
20
-116.6700000000000017
40
0.5
0
CIRCLE
8
BLACK
10
267.1999999999999886
20
-119.2099999999999937
40
0.5
0
CIRCLE
8
BLACK
10
267.1999999999999886
20
-121.75
40
0.5
0
CIRCLE
8
BLACK
10
267.1999999999999886
20
-124.289999999999992
40
0.5
0
CIRCLE
8
BLACK
10
267.1999999999999886
20
-126.8299999999999983
40
0.5
0
CIRCLE
8
BLACK
10
267.1999999999999886
20
-129.3700000000000045
40
0.5
0
CIRCLE
8
BLACK
10
264.6599999999999682
20
-50.6299999999999955
40
0.5
0
CIRCLE
8
BLACK
10
264.6599999999999682
20
-53.1699999999999946
40
0.5
0
CIRCLE
8
BLACK
10
264.6599999999999682
20
-55.7100000000000009
40
0.5
0
CIRCLE
8
BLACK
10
264.6599999999999682
20
-58.25
40
0.5
0
CIRCLE
8
BLACK
10
264.6599999999999682
20
-60.7899999999999991
40
0.5
0
CIRCLE
8
BLACK
10
264.6599999999999682
20
-63.3299999999999983
40
0.5
0
CIRCLE
8
BLACK
10
264.6599999999999682
20
-65.8699999999999903
40
0.5
0
CIRCLE
8
BLACK
10
264.6599999999999682
20
-68.4099999999999966
40
0.5
0
CIRCLE
8
BLACK
10
264.6599999999999682
20
-70.9500000000000028
40
0.5
0
CIRCLE
8
BLACK
10
264.6599999999999682
20
-73.4899999999999949
40
0.5
0
CIRCLE
8
BLACK
10
264.6599999999999682
20
-76.0300000000000011
40
0.5
0
CIRCLE
8
BLACK
10
264.6599999999999682
20
-78.5699999999999932
40
0.5
0
CIRCLE
8
BLACK
10
264.6599999999999682
20
-81.1099999999999994
40
0.5
0
CIRCLE
8
BLACK
10
264.6599999999999682
20
-83.6499999999999915
40
0.5
0
CIRCLE
8
BLACK
10
264.6599999999999682
20
-86.1899999999999977
40
0.5
0
CIRCLE
8
BLACK
10
264.6599999999999682
20
-88.7299999999999898
40
0.5
0
CIRCLE
8
BLACK
10
264.6599999999999682
20
-91.269999999999996
40
0.5
0
CIRCLE
8
BLACK
10
264.6599999999999682
20
-93.8100000000000023
40
0.5
0
CIRCLE
8
BLACK
10
264.6599999999999682
20
-96.3499999999999943
40
0.5
0
CIRCLE
8
BLACK
10
264.6599999999999682
20
-98.8900000000000006
40
0.5
0
CIRCLE
8
BLACK
10
264.6599999999999682
20
-101.4299999999999926
40
0.5
0
CIRCLE
8
BLACK
10
264.6599999999999682
20
-103.9699999999999989
40
0.5
0
CIRCLE
8
BLACK
10
264.6599999999999682
20
-106.5099999999999909
40
0.5
0
CIRCLE
8
BLACK
10
264.6599999999999682
20
-109.0499999999999972
40
0.5
0
CIRCLE
8
BLACK
10
264.6599999999999682
20
-111.5899999999999892
40
0.5
0
CIRCLE
8
BLACK
10
264.6599999999999682
20
-114.1299999999999955
40
0.5
0
CIRCLE
8
BLACK
10
264.6599999999999682
20
-116.6700000000000017
40
0.5
0
CIRCLE
8
BLACK
10
264.6599999999999682
20
-119.2099999999999937
40
0.5
0
CIRCLE
8
BLACK
10
264.6599999999999682
20
-121.75
40
0.5
0
CIRCLE
8
BLACK
10
264.6599999999999682
20
-124.289999999999992
40
0.5
0
CIRCLE
8
BLACK
10
264.6599999999999682
20
-126.8299999999999983
40
0.5
0
CIRCLE
8
BLACK
10
264.6599999999999682
20
-129.3700000000000045
40
0.5
0
CIRCLE
8
BLACK
10
58.3031999999999968
20
-57.5
40
0.9651989999999999
0
CIRCLE
8
BLACK
10
61.2749999999999986
20
-57.5
40
0.9651989999999999
0
CIRCLE
8
BLACK
10
78.
20
-132.
40
1.2499989999999999
0
CIRCLE
8
BLACK
10
164.
20
-132.
40
1.2499989999999999
0
CIRCLE
8
BLACK
10
232.9989999999999952
20
-70.039999999999992
40
0.52
0
CIRCLE
8
BLACK
10
232.9989999999999952
20
-67.5
40
0.52
0
CIRCLE
8
BLACK
10
232.9989999999999952
20
-64.9599999999999937
40
0.52
0
CIRCLE
8
BLACK
10
232.9989999999999952
20
-62.4199999999999946
40
0.52
0
CIRCLE
8
BLACK
10
232.9989999999999952
20
-59.8799999999999955
40
0.52
0
CIRCLE
8
BLACK
10
232.9989999999999952
20
-57.3399999999999963
40
0.52
0
CIRCLE
8
BLACK
10
172.
20
-132.
40
1.2499989999999999
0
CIRCLE
8
BLACK
10
211.
20
-132.
40
1.2499989999999999
0
CIRCLE
8
BLACK
10
124.1799999999999926
20
-45.2299999999999969
40
0.429996
0
CIRCLE
8
BLACK
10
124.1799999999999926
20
-47.769999999999996
40
0.429996
0
CIRCLE
8
BLACK
10
126.7199999999999989
20
-45.2299999999999969
40
0.429996
0
CIRCLE
8
BLACK
10
126.7199999999999989
20
-47.769999999999996
40
0.429996
0
CIRCLE
8
BLACK
10
129.2599999999999909
20
-45.2299999999999969
40
0.429996
0
CIRCLE
8
BLACK
10
129.2599999999999909
20
-47.769999999999996
40
0.429996
0
CIRCLE
8
BLACK
10
131.7999999999999829
20
-45.2299999999999969
40
0.429996
0
CIRCLE
8
BLACK
10
131.7999999999999829
20
-47.769999999999996
40
0.429996
0
CIRCLE
8
BLACK
10
134.3400000000000034
20
-45.2299999999999969
40
0.429996
0
CIRCLE
8
BLACK
10
134.3400000000000034
20
-47.769999999999996
40
0.429996
0
CIRCLE
8
BLACK
10
136.8799999999999955
20
-45.2299999999999969
40
0.429996
0
CIRCLE
8
BLACK
10
136.8799999999999955
20
-47.769999999999996
40
0.429996
0
CIRCLE
8
BLACK
10
139.4199999999999875
20
-45.2299999999999969
40
0.429996
0
CIRCLE
8
BLACK
10
139.4199999999999875
20
-47.769999999999996
40
0.429996
0
CIRCLE
8
BLACK
10
141.9599999999999795
20
-45.2299999999999969
40
0.429996
0
CIRCLE
8
BLACK
10
141.9599999999999795
20
-47.769999999999996
40
0.429996
0
CIRCLE
8
BLACK
10
144.5
20
-45.2299999999999969
40
0.429996
0
CIRCLE
8
BLACK
10
144.5
20
-47.769999999999996
40
0.429996
0
CIRCLE
8
BLACK
10
147.039999999999992
20
-45.2299999999999969
40
0.429996
0
CIRCLE
8
BLACK
10
147.039999999999992
20
-47.769999999999996
40
0.429996
0
CIRCLE
8
BLACK
10
149.5799999999999841
20
-45.2299999999999969
40
0.429996
0
CIRCLE
8
BLACK
10
149.5799999999999841
20
-47.769999999999996
40
0.429996
0
CIRCLE
8
BLACK
10
152.1200000000000045
20
-45.2299999999999969
40
0.429996
0
CIRCLE
8
BLACK
10
152.1200000000000045
20
-47.769999999999996
40
0.429996
0
CIRCLE
8
BLACK
10
154.6599999999999966
20
-45.2299999999999969
40
0.429996
0
CIRCLE
8
BLACK
10
154.6599999999999966
20
-47.769999999999996
40
0.429996
0
CIRCLE
8
BLACK
10
157.1999999999999886
20
-45.2299999999999969
40
0.429996
0
CIRCLE
8
BLACK
10
157.1999999999999886
20
-47.769999999999996
40
0.429996
0
CIRCLE
8
BLACK
10
159.7399999999999807
20
-45.2299999999999969
40
0.429996
0
CIRCLE
8
BLACK
10
159.7399999999999807
20
-47.769999999999996
40
0.429996
0
CIRCLE
8
BLACK
10
162.2800000000000011
20
-45.2299999999999969
40
0.429996
0
CIRCLE
8
BLACK
10
162.2800000000000011
20
-47.769999999999996
40
0.429996
0
CIRCLE
8
BLACK
10
164.8199999999999932
20
-45.2299999999999969
40
0.429996
0
CIRCLE
8
BLACK
10
164.8199999999999932
20
-47.769999999999996
40
0.429996
0
CIRCLE
8
BLACK
10
58.3031999999999968
20
-52.4199999999999946
40
0.9651989999999999
0
CIRCLE
8
BLACK
10
61.2749999999999986
20
-52.4199999999999946
40
0.9651989999999999
0
CIRCLE
8
BLACK
10
117.
20
-132.
40
1.2499989999999999
0
CIRCLE
8
BLACK
10
77.1799999999999926
20
-45.2299999999999969
40
0.429996
0
CIRCLE
8
BLACK
10
77.1799999999999926
20
-47.769999999999996
40
0.429996
0
CIRCLE
8
BLACK
10
79.7199999999999989
20
-45.2299999999999969
40
0.429996
0
CIRCLE
8
BLACK
10
79.7199999999999989
20
-47.769999999999996
40
0.429996
0
CIRCLE
8
BLACK
10
82.2599999999999909
20
-45.2299999999999969
40
0.429996
0
CIRCLE
8
BLACK
10
82.2599999999999909
20
-47.769999999999996
40
0.429996
0
CIRCLE
8
BLACK
10
84.7999999999999972
20
-45.2299999999999969
40
0.429996
0
CIRCLE
8
BLACK
10
84.7999999999999972
20
-47.769999999999996
40
0.429996
0
CIRCLE
8
BLACK
10
87.3399999999999892
20
-45.2299999999999969
40
0.429996
0
CIRCLE
8
BLACK
10
87.3399999999999892
20
-47.769999999999996
40
0.429996
0
CIRCLE
8
BLACK
10
89.8799999999999955
20
-45.2299999999999969
40
0.429996
0
CIRCLE
8
BLACK
10
89.8799999999999955
20
-47.769999999999996
40
0.429996
0
CIRCLE
8
BLACK
10
92.4200000000000017
20
-45.2299999999999969
40
0.429996
0
CIRCLE
8
BLACK
10
92.4200000000000017
20
-47.769999999999996
40
0.429996
0
CIRCLE
8
BLACK
10
94.9599999999999937
20
-45.2299999999999969
40
0.429996
0
CIRCLE
8
BLACK
10
94.9599999999999937
20
-47.769999999999996
40
0.429996
0
CIRCLE
8
BLACK
10
97.5
20
-45.2299999999999969
40
0.429996
0
CIRCLE
8
BLACK
10
97.5
20
-47.769999999999996
40
0.429996
0
CIRCLE
8
BLACK
10
100.039999999999992
20
-45.2299999999999969
40
0.429996
0
CIRCLE
8
BLACK
10
100.039999999999992
20
-47.769999999999996
40
0.429996
0
CIRCLE
8
BLACK
10
102.5799999999999983
20
-45.2299999999999969
40
0.429996
0
CIRCLE
8
BLACK
10
102.5799999999999983
20
-47.769999999999996
40
0.429996
0
CIRCLE
8
BLACK
10
105.1199999999999903
20
-45.2299999999999969
40
0.429996
0
CIRCLE
8
BLACK
10
105.1199999999999903
20
-47.769999999999996
40
0.429996
0
CIRCLE
8
BLACK
10
107.6599999999999966
20
-45.2299999999999969
40
0.429996
0
CIRCLE
8
BLACK
10
107.6599999999999966
20
-47.769999999999996
40
0.429996
0
CIRCLE
8
BLACK
10
110.1999999999999886
20
-45.2299999999999969
40
0.429996
0
CIRCLE
8
BLACK
10
110.1999999999999886
20
-47.769999999999996
40
0.429996
0
CIRCLE
8
BLACK
10
112.7399999999999949
20
-45.2299999999999969
40
0.429996
0
CIRCLE
8
BLACK
10
112.7399999999999949
20
-47.769999999999996
40
0.429996
0
CIRCLE
8
BLACK
10
115.2800000000000011
20
-45.2299999999999969
40
0.429996
0
CIRCLE
8
BLACK
10
115.2800000000000011
20
-47.769999999999996
40
0.429996
0
CIRCLE
8
BLACK
10
117.8199999999999932
20
-45.2299999999999969
40
0.429996
0
CIRCLE
8
BLACK
10
117.8199999999999932
20
-47.769999999999996
40
0.429996
0
CIRCLE
8
BLACK
10
125.
20
-132.
40
1.2499989999999999
0
CIRCLE
8
BLACK
10
239.2249999999999943
20
-62.5949999999999989
40
0.475
0
CIRCLE
8
BLACK
10
239.2249999999999943
20
-60.0549999999999997
40
0.475
0
CIRCLE
8
BLACK
10
58.5599999999999952
20
-45.5
40
1.45
0
CIRCLE
8
BLACK
10
58.5700000000000003
20
-134.4499999999999886
40
1.45
  0
ENDSEC
  0
EOF
